<svg width="25" height="24" viewBox="0 0 25 24" fill="none" xmlns="http://www.w3.org/2000/svg">
<path d="M24.3144 21.5849L18.0144 15.2453C17.7144 14.9434 17.2644 14.7925 16.8144 14.7925C18.0144 13.283 18.7644 11.1698 18.7644 9.0566C18.7644 4.07547 14.7144 0 9.7644 0C4.8144 0 0.764404 4.07547 0.764404 9.0566C0.764404 14.0377 4.8144 18.1132 9.7644 18.1132C11.8644 18.1132 13.9644 17.3585 15.4644 16C15.4644 16.4528 15.4644 16.9057 15.9144 17.2075L22.2144 23.5472C22.5144 23.8491 22.9644 24 23.2644 24C23.5644 24 24.0144 23.8491 24.3144 23.5472C24.9144 23.0943 24.9144 22.1887 24.3144 21.5849ZM9.7644 15.8491C6.0144 15.8491 3.0144 12.8302 3.0144 9.0566C3.0144 5.28302 6.0144 2.26415 9.7644 2.26415C13.5144 2.26415 16.5144 5.28302 16.5144 9.0566C16.5144 12.8302 13.5144 15.8491 9.7644 15.8491Z" fill="#363636" fill-opacity="0.8"/>
</svg>
